<svg id="图层_1" data-name="图层 1" xmlns="http://www.w3.org/2000/svg" xmlns:xlink="http://www.w3.org/1999/xlink" viewBox="0 0 236.34 95.72"><defs><style>.cls-1{fill:#f7f7f7;}.cls-2{fill:url(#未命名的渐变_8);}</style><linearGradient id="未命名的渐变_8" x1="32.37" y1="26.29" x2="73.37" y2="88.29" gradientUnits="userSpaceOnUse"><stop offset="0" stop-color="#00f2fe"/><stop offset="1" stop-color="#1890ff"/></linearGradient></defs><title>LOGO-SVG-2</title><path class="cls-1" d="M231.16,66.85c4.06-3.95,5.18-10.6,5.18-17.13,0-12.57-3.71-20.65-18.45-20.66h-13.6a.49.49,0,0,0-.49.49l0,41.41a.49.49,0,0,0,.49.49h13.54C224.26,71.45,227.09,70.8,231.16,66.85ZM212,64.17V36.33a.49.49,0,0,1,.49-.49h2.31c4.11,0,7.73.25,10.3,2.71s3.39,6.94,3.39,11.31-.88,8.9-3.35,11.55-6,3.25-10.32,3.25h-2.34A.49.49,0,0,1,212,64.17Z"/><path class="cls-1" d="M197.91,35.83a.48.48,0,0,0,.49-.48V30.44a1.36,1.36,0,0,0-1.34-1.39H176.7a.49.49,0,0,0-.49.49v5.8a.49.49,0,0,0,.49.49h5.16a1.38,1.38,0,0,1,1.34,1.39V63.26a1.37,1.37,0,0,1-1.35,1.38h-5.16a.49.49,0,0,0-.49.49v5.8a.49.49,0,0,0,.49.49h21.21a.48.48,0,0,0,.49-.48V66A1.36,1.36,0,0,0,197,64.65h-5.17a.49.49,0,0,1-.49-.49l0-27.84a.49.49,0,0,1,.49-.49Z"/><path class="cls-1" d="M170.07,71.66a.48.48,0,0,0,.48-.49V65.79a1.36,1.36,0,0,0-1.34-1.39H158.27a.49.49,0,0,1-.49-.49V59.3a.49.49,0,0,1,.49-.49h9.34a.49.49,0,0,0,.49-.49V54.19a1.36,1.36,0,0,0-1.34-1.39h-8.49a.49.49,0,0,1-.49-.49v-4.8a.49.49,0,0,1,.49-.49h9.33a.49.49,0,0,0,.49-.49v-4a1.37,1.37,0,0,0-1.35-1.39h-8.48a.49.49,0,0,1-.49-.49V36.53a.49.49,0,0,1,.49-.49h9.34a.49.49,0,0,0,.49-.49V30.37A1.36,1.36,0,0,0,166.77,29h-8.48a.49.49,0,0,1-.49-.49v-2.7a.49.49,0,0,0-.49-.49h-5a.48.48,0,0,0-.49.48v2.71a.49.49,0,0,1-.49.49h-7.39l.05-.16c.31-1,.61-1.93.88-2.89a.49.49,0,0,0-.47-.62h-4.66a1.35,1.35,0,0,0-1.3,1c-.52,2.07-2.37,6.81-6.1,13l-.22.36v-8a1.36,1.36,0,0,0-1.34-1.38H117.2a2.28,2.28,0,0,0-2.29,2.29l0,35a2.29,2.29,0,0,0,2.29,2.29h12.61a2.29,2.29,0,0,0,2.29-2.29V59.46a25.5,25.5,0,0,1,3.62-12.35l1.09-2,.22-.4v26.4a.49.49,0,0,0,.49.49ZM143.14,36.52a.5.5,0,0,1,.49-.49h6.81a1.36,1.36,0,0,1,1.34,1.39V40.7a.49.49,0,0,1-.49.49h-7.66a.49.49,0,0,1-.49-.49Zm0,11a.49.49,0,0,1,.49-.49h6.8a1.37,1.37,0,0,1,1.35,1.39v3.9a.48.48,0,0,1-.48.49h-7.67a.48.48,0,0,1-.48-.49Zm0,11.79a.49.49,0,0,1,.49-.49h6.81a1.36,1.36,0,0,1,1.34,1.38V63.9a.49.49,0,0,1-.49.49h-7.66a.49.49,0,0,1-.49-.49ZM125.5,63h-4.21a.49.49,0,0,1-.49-.49l0-25.18a.49.49,0,0,1,.49-.49h3.36A1.36,1.36,0,0,1,126,38.27l0,24.28A.49.49,0,0,1,125.5,63Z"/><path class="cls-2" d="M47.17.35a.66.66,0,0,0-.68.67V88.46a.68.68,0,0,1-.7.66,37.89,37.89,0,0,1-12.93-2.37.7.7,0,0,1-.45-.63V9.94a.67.67,0,0,1,.46-.64,39.76,39.76,0,0,1,7.42-1.78.67.67,0,0,0,.57-.66V1.48a.67.67,0,0,0-.77-.67A47.82,47.82,0,0,0,.67,35.69a.67.67,0,0,0,.65.85h5A.65.65,0,0,0,7,36.07,41,41,0,0,1,20.06,16.49a.67.67,0,0,1,1.09.53V79a.67.67,0,0,1-1.09.52,41,41,0,0,1-13.2-20,.66.66,0,0,0-.63-.48h-5a.67.67,0,0,0-.65.84,47.81,47.81,0,0,0,40.3,35.44c1.27.15,2.58.16,3.85.25a40.45,40.45,0,0,0,4.67.05,46.9,46.9,0,0,0,7.18-1,44.78,44.78,0,0,0,5.11-1.38,45.26,45.26,0,0,0,4.88-1.91A46.69,46.69,0,0,0,71.14,89a48.1,48.1,0,0,0,8.23-6.21A48.75,48.75,0,0,0,86.07,75a47.27,47.27,0,0,0,2.7-4.41,48.1,48.1,0,0,0,3.91-9.7,47.82,47.82,0,0,0,1.7-10.6c0-.74.05-1.49.05-2.23A47.75,47.75,0,0,0,49.23.4C48.71.37,47.8.35,47.17.35Zm19,83.36c-.58.33-1.17.64-1.77.94a.67.67,0,0,1-1-.61V12a.67.67,0,0,1,1-.61c.6.3,1.19.61,1.77.94a40.93,40.93,0,0,1,0,71.37Z"/></svg>